HIERARCHY
ROOT Hips
{
	OFFSET 0.000000 0.000000 0.000000 
	CHANNELS 6 Xposition Yposition Zposition Zrotation Yrotation Xrotation
	JOINT LeftUpLeg
	{
		OFFSET 1.363060 -1.794630 0.839290 
		CHANNELS 3 Zrotation Yrotation Xrotation
		JOINT LeftLeg
		{
			OFFSET 2.448110 -6.726130 0.000000 
			CHANNELS 3 Zrotation Yrotation Xrotation
			JOINT LeftFoot
			{
				OFFSET 2.562200 -7.039590 0.000000 
				CHANNELS 3 Zrotation Yrotation Xrotation
				JOINT LeftToeBase
				{
					OFFSET 0.157640 -0.433110 2.322550 
					CHANNELS 3 Zrotation Yrotation Xrotation
					End Site
					{
						OFFSET 0.000000 0.000000 0.000000 
					}
				}
			}
		}
	}
	JOINT RightUpLeg
	{
		OFFSET -1.305520 -1.794630 0.839290 
		CHANNELS 3 Zrotation Yrotation Xrotation
		JOINT RightLeg
		{
			OFFSET -2.542530 -6.985550 0.000000 
			CHANNELS 3 Zrotation Yrotation Xrotation
			JOINT RightFoot
			{
				OFFSET -2.568260 -7.056230 0.000000 
				CHANNELS 3 Zrotation Yrotation Xrotation
				JOINT RightToeBase
				{
					OFFSET -0.164730 -0.452590 2.363150 
					CHANNELS 3 Zrotation Yrotation Xrotation
					End Site
					{
						OFFSET 0.000000 0.000000 0.000000 
					}
				}
			}
		}
	}
	JOINT Spine
	{
		OFFSET 0.028270 2.035590 -0.193380 
		CHANNELS 3 Zrotation Yrotation Xrotation
		JOINT Spine1
		{
			OFFSET 0.056720 2.048850 -0.042750 
			CHANNELS 3 Zrotation Yrotation Xrotation
			JOINT Neck1
			{
				OFFSET -0.054170 1.746240 0.172020 
				CHANNELS 3 Zrotation Yrotation Xrotation
				JOINT Head
				{
					OFFSET 0.104070 1.761360 -0.123970 
					CHANNELS 3 Zrotation Yrotation Xrotation
					End Site
					{
						OFFSET 0.000000 0.000000 0.000000 
					}
				}
			}
			JOINT LeftArm
			{
				OFFSET 3.362410 1.200890 -0.311210 
				CHANNELS 3 Zrotation Yrotation Xrotation
				JOINT LeftForeArm
				{
					OFFSET 4.983000 -0.000000 -0.000000 
					CHANNELS 3 Zrotation Yrotation Xrotation
					JOINT LeftHand
					{
						OFFSET 3.483560 -0.000000 -0.000000 
						CHANNELS 3 Zrotation Yrotation Xrotation
						JOINT LeftHandIndex1
						{
							OFFSET 0.715260 -0.000000 -0.000000 
							CHANNELS 3 Zrotation Yrotation Xrotation
							End Site
							{
								OFFSET 0.000000 0.000000 0.000000 
							}
						}
					}
				}
			}
			JOINT RightArm
			{
				OFFSET -3.136600 1.374050 -0.404650 
				CHANNELS 3 Zrotation Yrotation Xrotation
				JOINT RightForeArm
				{
					OFFSET -5.241900 -0.000000 -0.000000 
					CHANNELS 3 Zrotation Yrotation Xrotation
					JOINT RightHand
					{
						OFFSET -3.444170 -0.000000 -0.000000 
						CHANNELS 3 Zrotation Yrotation Xrotation
						JOINT RightHandIndex1
						{
							OFFSET -0.622530 -0.000000 -0.000000 
							CHANNELS 3 Zrotation Yrotation Xrotation
							End Site
							{
								OFFSET 0.000000 0.000000 0.000000 
							}
						}
					}
				}
			}
		}
	}
}
MOTION
Frames: 10
Frame Time: 0.041667
1.796001 17.885143 4.756374 -1.483889 -2.967229 1.837375 -14.215576 0.132558 -3.438249 -0.477001 5.023560 13.940699 0.182488 0.826924 -3.580239 2.534000 -9.899500 -28.651800 17.922549 1.942867 -2.625966 -0.978477 -6.986030 17.187018 0.456888 -5.374645 -6.441802 -0.235900 -3.125800 8.629300 1.350230 -2.538350 -2.302621 4.540957 -1.651676 -2.871950 14.188943 -15.064244 1.479060 3.554100 -7.477900 3.746100 -96.648579 6.174916 2.348116 14.609357 -32.230037 -4.571506 -0.387706 0.708472 6.214323 -7.125000 0.000000 0.000000 88.118514 1.977550 13.595344 -7.346250 24.049957 -1.454566 -1.065557 -1.919828 7.612318 7.125000 0.000000 0.000000 
1.799303 17.883341 4.759276 -1.391319 -3.029692 1.856505 -14.336597 0.167257 -3.456831 -0.478738 5.027386 13.942554 0.170579 0.887488 -3.567491 2.554400 -9.936200 -28.770500 17.779022 1.899539 -2.735535 -0.991587 -7.028683 17.324245 0.431083 -5.231367 -6.661449 -0.323500 -3.655900 10.110600 1.331886 -2.555616 -2.299597 4.594112 -1.666649 -2.967378 10.721930 -16.249377 6.044368 2.008400 -7.826200 5.390300 -96.746566 6.243175 2.197839 14.512196 -32.114876 -4.525261 -0.387398 0.702970 6.373872 -7.125000 0.000000 0.000000 88.096502 1.944944 13.102311 -7.200543 23.821310 -1.409049 -1.077855 -1.917273 7.875915 7.125000 0.000000 0.000000 
1.801905 17.881740 4.762279 -1.386464 -3.086571 1.872832 -14.352068 0.197962 -3.521880 -0.470094 5.065623 14.045684 0.169321 0.901761 -3.621208 2.590400 -10.000400 -28.978000 17.753220 1.890590 -2.783806 -0.996369 -7.045133 17.379754 0.412035 -5.130465 -6.866505 -0.438500 -4.249100 11.778600 1.312008 -2.574917 -2.277517 4.569705 -1.680778 -2.980261 9.597744 -16.682921 7.653845 1.457600 -7.963100 6.039000 -96.743270 6.231495 2.081551 14.429804 -32.016463 -4.488688 -0.389293 0.698812 6.320932 -7.125000 0.000000 0.000000 88.157286 1.954495 12.529490 -7.017520 23.529919 -1.353167 -1.102177 -1.908302 8.403739 7.125000 0.000000 0.000000 
1.802906 17.879538 4.764581 -1.417664 -3.083462 1.856891 -14.313801 0.232111 -3.563815 -0.456559 5.105655 14.172606 0.172682 0.887102 -3.681151 2.601900 -10.020900 -29.044500 17.790095 1.918880 -2.774834 -0.997027 -7.061077 17.413487 0.396852 -5.059815 -7.059604 -0.583900 -4.892700 13.602900 1.277327 -2.507860 -2.266780 4.447833 -1.632845 -2.822265 15.570678 -14.094347 -0.811045 4.229700 -7.158200 2.847500 -96.715172 6.078987 1.977036 14.306417 -31.878280 -4.445966 -0.394906 0.700837 6.400611 -7.125000 0.000000 0.000000 88.231557 1.979966 11.998705 -6.815201 23.174208 -1.286931 -1.132508 -1.897557 8.729867 7.125000 0.000000 0.000000 
1.804808 17.877136 4.765782 -1.512064 -3.104359 1.837316 -14.211501 0.234598 -3.630434 -0.441189 5.170116 14.352629 0.202035 0.787442 -4.055379 2.393300 -9.641300 -27.822600 17.887592 1.950576 -2.729108 -0.995578 -7.058075 17.403355 0.382728 -4.988288 -7.198435 -0.728700 -5.454300 15.209000 1.279663 -2.477098 -2.234423 4.386817 -1.618091 -2.812797 15.664043 -13.993167 -1.253102 4.285000 -7.139800 2.682500 -96.720403 6.043244 1.909909 14.135948 -31.685627 -4.381589 -0.394757 0.697947 6.610298 -7.125000 0.000000 0.000000 88.251397 1.989213 11.593908 -6.562100 22.764581 -1.215568 -1.167963 -1.863915 8.519542 7.125000 0.000000 0.000000 
1.807510 17.874834 4.765782 -1.709233 -3.132509 1.831440 -13.993052 0.174641 -3.704300 -0.429357 5.239695 14.538517 0.288438 0.504174 -5.033673 1.805300 -8.448200 -24.083800 18.089013 1.980280 -2.696178 -0.992795 -7.049652 17.383917 0.353989 -4.848056 -7.533675 -1.071500 -6.580400 18.478100 1.314074 -2.452517 -2.190930 4.304288 -1.614057 -2.837607 14.918153 -14.629653 0.102834 3.885200 -7.348200 3.264100 -96.714604 6.059379 1.908314 13.967437 -31.495264 -4.312504 -0.391430 0.688243 6.762346 -7.125000 0.000000 0.000000 88.246602 1.989881 11.083040 -6.279542 22.317489 -1.150330 -1.192174 -1.814862 8.158630 7.125000 0.000000 0.000000 
1.808911 17.872933 4.764581 -1.826345 -3.154278 1.793848 -13.872490 0.083481 -3.731076 -0.414681 5.303045 14.712949 0.269140 0.605631 -5.043580 1.855300 -8.557900 -24.422000 18.231718 2.070166 -2.610612 -0.990649 -7.045521 17.369423 0.366121 -4.922368 -7.564238 -1.118400 -6.718100 18.883000 1.327855 -2.433695 -2.125757 4.254383 -1.608868 -2.800727 15.014898 -14.635280 -0.025672 3.907400 -7.354600 3.241700 -96.691794 5.980410 1.856712 13.822252 -31.327266 -4.253891 -0.389731 0.679407 6.898210 -7.125000 0.000000 0.000000 88.287075 2.039753 10.258289 -6.051967 21.939630 -1.090976 -1.188730 -1.818262 8.302198 7.125000 0.000000 0.000000 
1.811513 17.871031 4.764280 -1.819397 -3.171600 1.738591 -13.892182 0.040270 -3.747521 -0.398891 5.363721 14.882747 0.247897 0.697362 -4.957564 1.962500 -8.787500 -25.133000 18.226215 2.124244 -2.519708 -0.988325 -7.044173 17.359921 0.375603 -4.980633 -7.578129 -1.132500 -6.758900 19.003100 1.305519 -2.434853 -2.047005 4.230744 -1.613540 -2.740765 15.191372 -14.613316 -0.178544 3.953400 -7.346600 3.216400 -96.669392 5.867444 1.757509 13.718494 -31.202732 -4.212165 -0.388782 0.672257 7.014776 -7.125000 0.000000 0.000000 88.370770 2.089799 9.216882 -5.903753 21.673610 -1.037740 -1.156892 -1.883120 8.879416 7.125000 0.000000 0.000000 
1.815016 17.868829 4.765281 -1.829087 -3.167974 1.715806 -13.897096 0.022571 -3.786179 -0.384561 5.415987 15.029753 0.235823 0.747286 -4.892071 2.029600 -8.927600 -25.569000 18.220936 2.084853 -2.504417 -0.988719 -7.047159 17.366524 0.376266 -4.983843 -7.564178 -1.091200 -6.638700 18.649300 1.290161 -2.432075 -1.995811 4.196185 -1.614241 -2.704168 15.345044 -14.583718 -0.388709 4.002500 -7.341700 3.162500 -96.648010 5.846116 1.679738 13.670057 -31.144252 -4.191440 -0.388506 0.666780 7.130727 -7.125000 0.000000 0.000000 88.450764 2.049470 8.105426 -5.804002 21.474463 -0.992739 -1.112498 -1.963911 9.541367 7.125000 0.000000 0.000000 
1.817018 17.867528 4.766382 -1.850824 -3.182435 1.704576 -13.883696 -0.049221 -3.813090 -0.373801 5.462941 15.159900 0.221384 0.822192 -4.906020 2.067500 -9.005400 -25.812100 18.233282 2.062526 -2.501884 -0.990415 -7.050813 17.377475 0.371798 -4.954659 -7.537297 -1.035400 -6.472000 18.160200 1.292540 -2.396697 -1.958530 4.183960 -1.597734 -2.682946 15.384481 -14.606817 -0.509272 4.013500 -7.359400 3.136400 -96.637444 5.886644 1.712204 13.675646 -31.153967 -4.192394 -0.388777 0.666017 7.140470 -7.125000 0.000000 0.000000 88.498322 1.998254 6.950647 -5.705963 21.271439 -0.950691 -1.071508 -2.031402 10.180739 7.125000 0.000000 0.000000 
